<?xml version="1.0" standalone="no"?>
<!DOCTYPE svg PUBLIC "-//W3C//DTD SVG 20010904//EN"
 "http://www.w3.org/TR/2001/REC-SVG-20010904/DTD/svg10.dtd">
<svg version="1.0" xmlns="http://www.w3.org/2000/svg"
 width="114.000000pt" height="98.000000pt" viewBox="0 0 114.000000 98.000000"
 preserveAspectRatio="xMidYMid meet">

<g transform="translate(0.000000,98.000000) scale(0.100000,-0.100000)"
fill="#000000" stroke="none">
<path d="M488 910 c-53 -29 -88 -92 -88 -162 0 -173 117 -292 230 -233 96 50
143 233 85 332 -46 77 -146 105 -227 63z m138 -108 c64 18 68 14 68 -54 0 -21
4 -38 8 -38 14 0 8 -44 -11 -85 -30 -64 -64 -90 -121 -90 -57 0 -91 26 -121
90 -19 41 -25 85 -11 85 4 0 8 17 8 38 0 68 4 72 68 54 51 -14 61 -14 112 0z"/>
<path d="M696 502 c-15 -46 -145 -68 -207 -36 -17 8 -32 14 -34 12 -1 -2 19
-52 45 -113 l47 -110 54 -7 c83 -10 114 -64 68 -122 l-20 -26 -163 0 c-145 0
-165 2 -179 18 -25 27 -22 97 3 115 16 11 22 34 33 135 7 68 9 122 4 122 -23
0 -68 -46 -91 -93 -22 -46 -25 -64 -24 -157 1 -112 11 -147 50 -174 18 -13 56
-16 204 -16 181 0 183 0 213 26 18 15 33 39 37 58 5 31 10 34 50 40 90 12 124
48 124 129 -1 79 -52 157 -128 196 -51 26 -79 27 -86 3z"/>
</g>
</svg>
