<?xml version="1.0" standalone="no"?>
<!DOCTYPE svg PUBLIC "-//W3C//DTD SVG 20010904//EN"
 "http://www.w3.org/TR/2001/REC-SVG-20010904/DTD/svg10.dtd">
<svg version="1.0" xmlns="http://www.w3.org/2000/svg"
 width="700.000000pt" height="599.000000pt" viewBox="0 0 700.000000 599.000000"
 preserveAspectRatio="xMidYMid meet">

<g transform="translate(0.000000,599.000000) scale(0.100000,-0.100000)"
fill="#000000" stroke="none">
<path d="M3334 5680 c-508 -92 -884 -555 -884 -1089 0 -114 23 -317 51 -454
72 -357 266 -706 492 -885 475 -378 1053 -182 1363 462 129 268 203 630 191
926 -17 405 -244 765 -592 940 -155 78 -251 101 -425 106 -80 1 -168 -1 -196
-6z m-418 -696 c80 -35 269 -88 383 -108 230 -39 500 -3 764 101 83 32 90 34
112 19 37 -24 74 -96 91 -177 13 -59 15 -114 10 -264 -3 -104 -8 -202 -12
-218 l-6 -27 57 30 c31 16 63 30 71 30 20 0 18 -44 -11 -184 -64 -318 -197
-574 -395 -759 -66 -62 -103 -88 -184 -127 -121 -58 -183 -73 -296 -73 -113 0
-175 15 -297 74 -169 81 -318 237 -426 449 -83 162 -131 302 -162 481 -19 106
-19 139 -1 139 8 0 40 -14 71 -30 56 -30 57 -30 51 -8 -4 13 -10 107 -13 209
-6 200 3 288 39 371 19 44 67 98 88 98 4 0 34 -12 66 -26z"/>
<path d="M4321 3128 c-26 -114 -119 -209 -278 -285 -370 -176 -931 -140 -1220
78 l-52 39 35 -82 c307 -717 579 -1346 587 -1355 7 -10 72 -13 263 -13 226 0
261 -2 309 -19 111 -39 208 -138 241 -247 8 -27 18 -89 21 -139 15 -234 -62
-386 -235 -468 l-67 -32 -940 0 -940 0 -67 32 c-160 76 -238 212 -238 418 0
204 76 346 223 418 38 18 57 34 57 46 0 24 148 1449 155 1484 6 37 -8 35 -83
-10 -270 -165 -474 -407 -581 -693 -104 -277 -118 -597 -37 -814 25 -66 25
-66 6 -108 -38 -87 -53 -200 -47 -362 4 -124 9 -165 29 -228 39 -119 91 -203
183 -294 66 -66 100 -90 176 -128 159 -78 116 -76 1164 -76 1049 0 1005 -3
1165 76 79 39 109 62 180 133 133 133 196 276 207 464 l6 97 61 0 c98 0 283
20 389 41 320 64 487 204 559 466 31 114 31 375 0 520 -119 555 -558 982
-1106 1078 -49 8 -94 15 -101 15 -6 0 -17 -23 -24 -52z"/>
</g>
</svg>
