<?xml version="1.0" standalone="no"?>
<!DOCTYPE svg PUBLIC "-//W3C//DTD SVG 20010904//EN"
 "http://www.w3.org/TR/2001/REC-SVG-20010904/DTD/svg10.dtd">
<svg version="1.0" xmlns="http://www.w3.org/2000/svg"
 width="47.000000pt" height="40.000000pt" viewBox="0 0 47.000000 40.000000"
 preserveAspectRatio="xMidYMid meet">

<g transform="translate(0.000000,40.000000) scale(0.100000,-0.100000)"
fill="#000000" stroke="none">
<path d="M181 354 c-25 -31 -26 -52 -7 -99 29 -68 93 -68 122 0 19 47 18 68
-7 99 -15 19 -30 26 -54 26 -24 0 -39 -7 -54 -26z m106 -60 c3 -39 -21 -74
-52 -74 -31 0 -55 36 -51 75 2 17 4 30 5 30 0 0 22 0 48 0 45 -1 48 -3 50 -31z"/>
<path d="M270 194 c-14 -8 -37 -11 -53 -8 -26 5 -27 4 -17 -21 19 -49 30 -64
52 -67 17 -2 23 -10 23 -28 0 -24 -3 -25 -73 -28 -79 -3 -95 8 -74 51 13 28
23 107 13 107 -38 0 -63 -113 -35 -157 13 -21 22 -23 94 -23 76 0 110 12 110
41 0 5 9 9 20 9 28 0 53 42 44 74 -6 27 -48 67 -68 65 -6 -1 -22 -7 -36 -15z"/>
</g>
</svg>
