<?xml version="1.0" standalone="no"?>
<!DOCTYPE svg PUBLIC "-//W3C//DTD SVG 20010904//EN"
 "http://www.w3.org/TR/2001/REC-SVG-20010904/DTD/svg10.dtd">
<svg version="1.0" xmlns="http://www.w3.org/2000/svg"
 width="700.000000pt" height="600.000000pt" viewBox="0 0 700.000000 600.000000"
 preserveAspectRatio="xMidYMid meet">

<g transform="translate(0.000000,600.000000) scale(0.100000,-0.100000)"
fill="#000000" stroke="none">
<path d="M3170 5834 c-935 -112 -1759 -679 -2198 -1514 -385 -731 -428 -1621
-117 -2388 363 -894 1160 -1550 2104 -1732 347 -67 735 -67 1082 0 819 158
1529 671 1947 1406 325 572 439 1278 312 1935 -182 944 -838 1741 -1732 2104
-233 94 -491 160 -748 189 -165 19 -489 19 -650 0z m492 -1355 l3 -201 57 -18
c136 -42 303 -156 384 -263 43 -57 93 -151 109 -204 7 -25 20 -22 -227 -59
l-177 -27 -48 51 c-29 31 -72 62 -108 79 -55 26 -70 28 -175 28 -106 0 -119
-2 -173 -28 -189 -93 -216 -280 -63 -439 62 -65 102 -83 293 -128 192 -47 301
-88 399 -152 94 -62 156 -119 209 -192 102 -144 146 -277 146 -446 -1 -131
-25 -232 -85 -355 -99 -201 -256 -333 -471 -400 l-70 -22 -3 -191 -2 -192
-200 0 -200 0 0 199 0 199 -63 21 c-183 61 -351 210 -429 379 -24 53 -62 182
-55 188 1 1 94 16 205 32 183 26 204 27 208 13 15 -50 62 -125 94 -151 56 -44
135 -78 215 -90 57 -10 83 -9 144 4 127 27 210 91 265 206 28 58 31 75 31 155
0 77 -4 98 -27 147 -60 128 -157 188 -410 253 -274 71 -374 121 -496 249 -214
225 -271 526 -146 774 74 150 217 277 380 340 l79 30 3 206 2 206 200 0 200 0
2 -201z"/>
</g>
</svg>
