<?xml version="1.0" standalone="no"?>
<!DOCTYPE svg PUBLIC "-//W3C//DTD SVG 20010904//EN"
 "http://www.w3.org/TR/2001/REC-SVG-20010904/DTD/svg10.dtd">
<svg version="1.0" xmlns="http://www.w3.org/2000/svg"
 width="700.000000pt" height="600.000000pt" viewBox="0 0 700.000000 600.000000"
 preserveAspectRatio="xMidYMid meet">

<g transform="translate(0.000000,600.000000) scale(0.100000,-0.100000)"
fill="#000000" stroke="none">
<path d="M3245 5994 c-715 -73 -1331 -354 -1829 -834 -479 -463 -785 -1057
-887 -1720 -27 -175 -36 -527 -20 -707 36 -380 130 -712 301 -1058 152 -308
326 -552 570 -795 243 -244 487 -418 795 -570 459 -226 893 -321 1414 -307
453 12 849 110 1251 311 791 395 1362 1110 1576 1971 65 265 78 383 78 715 0
255 -3 314 -22 435 -100 638 -374 1195 -812 1649 -461 478 -1055 784 -1720
887 -105 16 -193 22 -395 24 -143 2 -278 1 -300 -1z m683 -2156 c229 -233 497
-505 595 -604 162 -164 176 -182 155 -187 -13 -4 -179 -7 -369 -7 -307 0 -348
-2 -353 -16 -3 -9 -6 -296 -6 -638 0 -470 -3 -625 -12 -634 -19 -19 -861 -17
-877 1 -8 10 -12 200 -13 648 l-3 634 -375 5 -375 5 225 230 c508 520 972 985
981 985 6 0 198 -190 427 -422z"/>
</g>
</svg>
