<?xml version="1.0" standalone="no"?>
<!DOCTYPE svg PUBLIC "-//W3C//DTD SVG 20010904//EN"
 "http://www.w3.org/TR/2001/REC-SVG-20010904/DTD/svg10.dtd">
<svg version="1.0" xmlns="http://www.w3.org/2000/svg"
 width="700.000000pt" height="600.000000pt" viewBox="0 0 700.000000 600.000000"
 preserveAspectRatio="xMidYMid meet">

<g transform="translate(0.000000,600.000000) scale(0.100000,-0.100000)"
fill="#000000" stroke="none">
<path d="M3245 5994 c-715 -73 -1331 -354 -1829 -834 -480 -464 -782 -1050
-888 -1725 -19 -121 -22 -180 -22 -435 0 -331 13 -449 78 -715 269 -1089 1112
-1932 2201 -2201 266 -65 384 -78 715 -78 255 0 314 3 435 22 581 91 1096 328
1530 703 544 471 893 1107 1007 1834 19 121 22 180 22 435 0 255 -3 314 -22
435 -100 638 -374 1195 -812 1649 -461 478 -1055 784 -1720 887 -105 16 -193
22 -395 24 -143 2 -278 1 -300 -1z m1298 -1702 l327 -327 0 -1274 c0 -1172 -1
-1276 -17 -1293 -15 -17 -69 -18 -1294 -18 l-1278 0 -15 22 c-14 20 -16 188
-16 1598 0 1410 2 1578 16 1598 l15 22 967 0 967 0 328 -328z"/>
<path d="M2370 3000 l0 -1500 1190 0 1190 0 0 1190 0 1190 -293 0 c-272 0
-295 1 -310 18 -15 16 -17 53 -17 310 l0 292 -880 0 -880 0 0 -1500z m2130
560 l0 -60 -935 0 -935 0 0 60 0 60 935 0 935 0 0 -60z m0 -370 l0 -60 -935 0
-935 0 0 60 0 60 935 0 935 0 0 -60z m0 -380 l0 -60 -935 0 -935 0 0 60 0 60
935 0 935 0 0 -60z m0 -370 l0 -60 -935 0 -935 0 0 60 0 60 935 0 935 0 0 -60z
m0 -380 l0 -60 -935 0 -935 0 0 60 0 60 935 0 935 0 0 -60z"/>
<path d="M4250 4205 l0 -205 207 0 208 0 -205 205 c-113 113 -206 205 -207
205 -2 0 -3 -92 -3 -205z"/>
</g>
</svg>
