<?xml version="1.0" standalone="no"?>
<!DOCTYPE svg PUBLIC "-//W3C//DTD SVG 20010904//EN"
 "http://www.w3.org/TR/2001/REC-SVG-20010904/DTD/svg10.dtd">
<svg version="1.0" xmlns="http://www.w3.org/2000/svg"
 width="700.000000pt" height="596.000000pt" viewBox="0 0 700.000000 596.000000"
 preserveAspectRatio="xMidYMid meet">

<g transform="translate(0.000000,596.000000) scale(0.100000,-0.100000)"
fill="#000000" stroke="none">
<path d="M3391 5644 c-255 -68 -420 -326 -368 -575 22 -110 61 -183 137 -260
103 -104 209 -149 355 -149 146 0 252 45 355 149 154 155 189 371 95 568 -102
211 -352 327 -574 267z"/>
<path d="M1557 5050 c-108 -28 -213 -113 -263 -215 -26 -55 -29 -69 -29 -165
0 -93 3 -111 27 -163 60 -127 191 -217 329 -225 173 -10 312 74 387 235 23 50
27 71 27 153 0 87 -3 101 -32 160 -40 82 -110 152 -189 191 -49 24 -78 32
-140 35 -44 2 -96 -1 -117 -6z"/>
<path d="M5279 5047 c-105 -30 -200 -111 -252 -217 -29 -59 -32 -73 -32 -160
0 -82 4 -103 27 -153 37 -79 78 -128 141 -170 200 -133 466 -59 573 158 26 55
29 69 29 165 0 96 -3 110 -29 165 -64 129 -191 213 -334 221 -45 2 -96 -1
-123 -9z"/>
<path d="M2952 4455 c-44 -14 -104 -53 -135 -89 -55 -65 -54 -60 -148 -885
-51 -446 -88 -806 -85 -833 6 -61 46 -137 92 -178 57 -50 116 -72 211 -78 46
-2 83 -5 83 -6 1 -1 54 -452 119 -1004 115 -968 120 -1004 145 -1042 47 -71
79 -80 281 -80 201 0 234 9 281 79 24 37 30 79 140 1012 63 536 116 988 119
1005 l5 31 84 5 c101 7 159 31 219 91 46 45 87 133 87 185 0 15 -40 381 -89
813 -97 855 -92 830 -165 902 -43 43 -108 75 -171 84 l-49 6 22 -31 c32 -43
72 -133 72 -159 0 -12 16 -38 35 -57 26 -26 35 -44 35 -68 0 -67 -55 -108
-117 -87 -68 22 -80 105 -22 153 16 14 29 32 29 40 0 36 -43 126 -79 165 l-38
41 -377 0 -377 0 -24 -52 c-45 -96 -31 -133 69 -192 55 -32 132 -126 139 -170
3 -17 17 -63 31 -102 31 -86 43 -217 24 -254 -27 -52 -149 -90 -178 -55 -22
26 5 45 65 45 71 0 81 14 77 103 -3 82 -41 204 -74 240 -13 13 -38 43 -57 67
-97 120 -197 105 -271 -42 -16 -34 -37 -69 -45 -78 -34 -38 -41 -254 -9 -297
10 -14 27 -18 81 -18 63 0 68 -2 71 -22 4 -29 -29 -38 -102 -29 -37 5 -60 14
-75 30 -39 42 -52 182 -27 290 8 33 12 65 9 72 -12 32 85 188 137 220 28 17
57 69 69 122 6 29 17 68 25 87 l15 35 -57 -1 c-31 0 -76 -6 -100 -14z m898
-435 l0 -50 50 0 50 0 0 -40 0 -40 -50 0 -50 0 0 -50 0 -50 -39 0 -40 0 -3 48
-3 47 -47 3 -48 3 0 40 0 39 50 0 50 0 0 50 0 50 40 0 40 0 0 -50z"/>
<path d="M4006 4188 c-9 -12 -16 -30 -16 -39 0 -19 45 -59 66 -59 22 0 54 38
54 63 0 53 -75 77 -104 35z"/>
<path d="M1243 4130 c-94 -19 -164 -85 -182 -171 -6 -30 -41 -319 -77 -643
-73 -656 -73 -639 -8 -715 48 -56 106 -81 185 -81 l64 0 88 -763 c58 -496 95
-778 106 -807 10 -28 29 -53 50 -67 31 -21 45 -23 179 -23 163 0 193 10 225
72 13 24 42 241 107 798 50 421 90 771 90 778 0 8 20 12 63 12 114 0 202 62
233 165 12 42 10 76 -26 388 -21 188 -53 468 -70 622 -34 296 -41 324 -97 377
-35 33 -92 58 -134 58 -30 0 -31 -1 -16 -18 21 -23 57 -102 57 -127 0 -10 11
-28 25 -40 13 -11 27 -31 30 -45 9 -37 -27 -80 -66 -80 -63 0 -93 79 -44 118
32 25 31 45 -1 110 -47 94 -40 92 -363 92 l-281 0 -20 -32 c-28 -45 -36 -94
-19 -114 8 -9 31 -28 53 -41 63 -40 114 -102 121 -145 2 -13 13 -48 24 -78 26
-69 29 -191 6 -214 -21 -20 -89 -40 -110 -32 -9 3 -15 14 -13 23 2 14 16 19
53 23 l50 5 0 75 c0 101 -22 153 -98 234 -51 54 -68 66 -94 66 -40 0 -87 -39
-115 -94 -11 -22 -28 -49 -36 -59 -12 -13 -17 -45 -20 -115 -5 -123 3 -137 80
-137 40 0 53 -4 53 -15 0 -32 -117 -29 -145 4 -19 24 -28 125 -18 196 5 36 11
77 13 92 6 43 34 89 96 157 38 41 59 73 59 88 0 13 7 40 15 60 8 19 15 39 15
44 0 11 -29 10 -87 -1z m667 -350 c0 -39 1 -40 35 -40 32 0 35 -2 35 -30 0
-28 -3 -30 -35 -30 -34 0 -35 -1 -35 -40 0 -38 -2 -40 -30 -40 -28 0 -30 2
-30 40 l0 40 -40 0 c-38 0 -40 2 -40 29 0 27 3 30 38 33 35 3 37 5 40 41 3 34
6 37 33 37 27 0 29 -2 29 -40z"/>
<path d="M4971 4129 c-69 -13 -130 -58 -161 -120 -11 -21 -23 -79 -30 -140 -6
-57 -38 -336 -70 -620 -43 -376 -56 -527 -50 -554 23 -102 122 -175 237 -175
40 0 63 -4 63 -11 0 -43 183 -1544 190 -1562 12 -29 29 -49 60 -70 20 -14 49
-17 170 -17 170 0 199 11 229 83 13 30 44 264 107 810 l89 767 54 0 c29 0 72
6 94 12 54 16 120 81 142 141 18 47 18 48 -49 650 -37 331 -72 622 -79 647
-20 79 -115 159 -190 160 l-28 0 25 -42 c13 -24 29 -62 36 -85 6 -24 22 -54
35 -67 31 -31 32 -66 2 -94 -29 -27 -71 -28 -97 -2 -27 27 -25 66 5 96 31 31
31 52 0 113 -47 93 -37 91 -361 91 -283 0 -284 0 -298 -22 -8 -13 -20 -42 -26
-66 -10 -40 -9 -45 12 -66 13 -12 40 -33 61 -45 42 -26 107 -105 107 -131 0
-10 6 -33 14 -52 22 -52 39 -164 31 -204 -5 -30 -13 -39 -51 -55 -54 -25 -89
-22 -89 6 0 17 8 20 47 23 64 4 73 21 59 111 -13 84 -25 111 -79 183 -88 119
-173 115 -233 -10 -13 -26 -28 -53 -35 -59 -27 -27 -30 -211 -5 -236 5 -5 34
-10 63 -11 62 -1 75 -26 20 -37 -91 -19 -132 28 -132 148 0 139 37 248 106
315 55 52 64 65 64 86 0 11 7 39 15 62 8 23 15 46 15 51 0 11 -29 10 -89 -2z
m669 -349 l0 -40 40 0 c38 0 40 -2 40 -30 0 -28 -2 -30 -40 -30 l-40 0 0 -40
c0 -38 -2 -40 -30 -40 -28 0 -30 2 -30 40 l0 40 -40 0 c-38 0 -40 2 -40 30 0
28 2 30 40 30 l40 0 0 40 c0 38 2 40 30 40 28 0 30 -2 30 -40z"/>
<path d="M2032 3918 c-21 -21 -14 -57 14 -70 31 -14 57 -1 62 31 7 42 -46 69
-76 39z"/>
<path d="M5758 3905 c-9 -21 -8 -28 7 -45 35 -39 93 -1 74 48 -12 33 -65 31
-81 -3z"/>
</g>
</svg>
