<?xml version="1.0" standalone="no"?>
<!DOCTYPE svg PUBLIC "-//W3C//DTD SVG 20010904//EN"
 "http://www.w3.org/TR/2001/REC-SVG-20010904/DTD/svg10.dtd">
<svg version="1.0" xmlns="http://www.w3.org/2000/svg"
 width="700.000000pt" height="609.000000pt" viewBox="0 0 700.000000 609.000000"
 preserveAspectRatio="xMidYMid meet">

<g transform="translate(0.000000,609.000000) scale(0.100000,-0.100000)"
fill="#000000" stroke="none">
<path d="M5079 5900 c-58 -10 -80 -22 -113 -60 -70 -84 -53 -217 37 -284 26
-19 45 -21 233 -26 l205 -5 -2344 -1403 c-1290 -772 -2352 -1411 -2361 -1421
-23 -25 -46 -86 -46 -122 0 -17 12 -58 27 -91 35 -78 82 -108 171 -108 53 0
69 5 124 39 81 51 4606 2754 4636 2770 19 10 8 -17 -59 -150 -78 -157 -81
-165 -77 -221 7 -99 86 -173 183 -172 61 1 105 23 138 66 14 18 124 232 246
475 l221 443 0 85 c0 62 -4 93 -16 110 -9 14 -20 25 -24 25 -5 0 -22 14 -38
30 l-30 30 -534 -1 c-293 -1 -554 -5 -579 -9z"/>
<path d="M4905 4381 c-44 -27 -74 -63 -85 -102 -14 -48 -13 -3831 0 -3881 11
-39 75 -104 112 -113 13 -3 305 -4 649 -3 l626 3 35 27 c74 57 68 -123 68
2028 0 2151 6 1971 -68 2028 l-35 27 -636 3 c-607 2 -637 1 -666 -17z m1030
-2041 l0 -1685 -372 -3 -373 -2 0 1690 0 1690 373 -2 372 -3 0 -1685z"/>
<path d="M2855 3261 c-46 -21 -79 -54 -94 -94 -8 -20 -11 -450 -11 -1391 l0
-1363 23 -44 c15 -27 38 -52 63 -66 l39 -23 625 0 625 0 39 23 c25 14 48 39
63 66 l23 44 0 1363 c0 941 -3 1371 -11 1391 -15 40 -48 73 -94 94 -37 17 -78
19 -645 19 -567 0 -608 -2 -645 -19z m1015 -1486 l0 -1125 -370 0 -370 0 0
1125 0 1125 370 0 370 0 0 -1125z"/>
<path d="M782 2133 c-18 -9 -45 -32 -60 -51 l-27 -35 0 -832 0 -832 27 -35
c54 -71 26 -68 718 -68 515 0 626 2 648 14 38 20 77 65 91 105 14 44 16 1579
1 1630 -11 39 -51 86 -92 107 -22 12 -133 14 -650 14 -556 0 -627 -2 -656 -17z
m1028 -918 l0 -565 -372 2 -373 3 -3 550 c-1 303 0 556 3 563 3 9 88 12 375
12 l370 0 0 -565z"/>
</g>
</svg>
