<?xml version="1.0" standalone="no"?>
<!DOCTYPE svg PUBLIC "-//W3C//DTD SVG 20010904//EN"
 "http://www.w3.org/TR/2001/REC-SVG-20010904/DTD/svg10.dtd">
<svg version="1.0" xmlns="http://www.w3.org/2000/svg"
 width="700.000000pt" height="599.000000pt" viewBox="0 0 700.000000 599.000000"
 preserveAspectRatio="xMidYMid meet">

<g transform="translate(0.000000,599.000000) scale(0.100000,-0.100000)"
fill="#000000" stroke="none">
<path d="M3173 5826 c-93 -30 -182 -103 -227 -188 -9 -18 -43 -125 -74 -238
l-57 -205 -192 -79 -191 -78 -181 102 c-213 120 -253 134 -365 128 -131 -7
-163 -28 -402 -262 -237 -234 -255 -261 -262 -403 -6 -109 5 -141 129 -359
l101 -179 -77 -190 c-43 -104 -78 -191 -79 -192 0 -1 -84 -24 -186 -53 -102
-28 -212 -64 -246 -80 -74 -36 -145 -110 -182 -188 l-27 -57 0 -315 0 -315 27
-57 c35 -75 104 -148 170 -180 29 -14 140 -50 247 -79 l194 -53 22 -51 c12
-27 48 -114 80 -192 l57 -141 -97 -172 c-130 -228 -138 -252 -133 -365 7 -142
22 -165 272 -413 189 -187 217 -211 269 -231 152 -56 217 -42 463 96 104 58
196 105 204 105 17 -1 361 -140 373 -151 4 -4 31 -93 60 -197 29 -104 64 -211
77 -237 33 -65 107 -139 172 -171 85 -42 149 -48 427 -44 238 4 260 6 313 27
66 26 157 103 193 165 13 22 50 135 83 250 l58 209 191 77 190 78 184 -104
c209 -117 275 -140 375 -129 120 13 167 45 386 263 218 219 250 266 263 386
11 100 -12 166 -129 375 l-104 184 78 190 78 191 198 56 c110 31 223 69 252
85 98 53 170 155 191 270 15 78 14 509 0 577 -15 72 -42 122 -97 180 -64 69
-117 93 -342 155 -107 30 -195 55 -196 56 -1 1 -36 88 -79 192 l-77 190 80
140 c152 268 147 255 147 375 0 162 -15 186 -262 432 -231 229 -261 249 -400
256 -109 6 -141 -5 -359 -129 l-179 -101 -190 77 c-104 43 -191 78 -192 79 -1
0 -24 84 -53 186 -28 102 -64 212 -80 246 -36 74 -110 145 -188 182 l-57 27
-300 2 c-228 2 -310 -1 -342 -11z m590 -334 c9 -10 48 -132 87 -272 39 -140
75 -258 78 -262 11 -10 654 -278 668 -278 8 0 116 58 241 129 126 70 239 132
251 136 21 6 45 -14 194 -162 93 -92 174 -179 179 -192 8 -21 -6 -52 -103
-225 -62 -111 -123 -222 -137 -247 l-25 -46 134 -329 c73 -181 134 -331 136
-333 2 -2 120 -36 264 -76 144 -41 268 -79 276 -86 21 -17 21 -501 0 -522 -8
-8 -52 -25 -98 -37 -269 -71 -440 -119 -442 -122 -2 -1 -65 -153 -140 -336
l-136 -334 135 -239 c74 -132 135 -250 135 -262 0 -31 -337 -367 -368 -367
-11 0 -129 61 -261 135 l-239 135 -334 -136 c-183 -75 -335 -138 -337 -140 -2
-2 -37 -121 -77 -264 -40 -144 -78 -268 -84 -276 -10 -11 -56 -14 -260 -14
-224 0 -248 2 -263 18 -9 9 -47 133 -85 275 -39 142 -71 260 -73 261 -2 2
-154 65 -337 140 l-334 136 -239 -135 c-132 -74 -250 -135 -262 -135 -31 0
-367 337 -367 368 0 12 61 129 135 261 l135 239 -136 334 c-75 183 -138 335
-140 337 -2 2 -121 37 -264 77 -144 40 -268 78 -276 84 -11 10 -14 56 -14 261
0 270 0 271 58 286 15 3 132 36 261 72 l235 66 138 336 138 337 -135 236 c-74
129 -135 246 -135 259 0 31 336 367 368 367 11 0 129 -61 261 -135 l239 -135
334 136 c183 75 335 138 337 140 2 2 36 120 76 264 41 144 79 268 86 276 9 11
56 14 259 14 224 0 248 -2 263 -18z"/>
<path d="M3307 4054 c-349 -63 -658 -309 -799 -637 -56 -129 -78 -231 -85
-382 -8 -199 22 -347 109 -524 150 -304 447 -527 783 -586 270 -47 548 12 785
166 84 55 244 215 299 299 154 237 213 515 166 785 -68 389 -354 719 -732 844
-149 50 -366 64 -526 35z m339 -325 c138 -25 276 -100 385 -208 159 -160 227
-340 217 -575 -9 -193 -78 -348 -217 -487 -139 -139 -294 -208 -487 -217 -235
-10 -415 58 -575 217 -108 109 -183 247 -208 385 -15 84 -13 240 4 314 66 279
284 499 563 567 70 16 237 19 318 4z"/>
</g>
</svg>
